<?xml version="1.0" encoding="UTF-8" standalone="no"?>
<svg
   xmlns:dc="http://purl.org/dc/elements/1.1/"
   xmlns:cc="http://creativecommons.org/ns#"
   xmlns:rdf="http://www.w3.org/1999/02/22-rdf-syntax-ns#"
   xmlns:svg="http://www.w3.org/2000/svg"
   xmlns="http://www.w3.org/2000/svg"
   xmlns:sodipodi="http://sodipodi.sourceforge.net/DTD/sodipodi-0.dtd"
   xmlns:inkscape="http://www.inkscape.org/namespaces/inkscape"
   viewBox="0 0 500 500"
   version="1.1"
   id="svg4"
   sodipodi:docname="gear-solid.svg"
   inkscape:version="0.92.5 (2060ec1f9f, 2020-04-08)">
  <metadata
     id="metadata10">
    <rdf:RDF>
      <cc:Work
         rdf:about="">
        <dc:format>image/svg+xml</dc:format>
        <dc:type
           rdf:resource="http://purl.org/dc/dcmitype/StillImage" />
        <dc:title></dc:title>
      </cc:Work>
    </rdf:RDF>
  </metadata>
  <defs
     id="defs8" />
  <sodipodi:namedview
     pagecolor="#ffffff"
     bordercolor="#666666"
     borderopacity="1"
     objecttolerance="10"
     gridtolerance="10"
     guidetolerance="10"
     inkscape:pageopacity="0"
     inkscape:pageshadow="2"
     inkscape:window-width="640"
     inkscape:window-height="480"
     id="namedview6"
     showgrid="false"
     inkscape:zoom="0.4609375"
     inkscape:cx="256"
     inkscape:cy="256"
     inkscape:window-x="0"
     inkscape:window-y="24"
     inkscape:window-maximized="0"
     inkscape:current-layer="svg4" />
  <!--! Font Awesome Pro 6.4.0 by @fontawesome - https://fontawesome.com License - https://fontawesome.com/license (Commercial License) Copyright 2023 Fonticons, Inc. -->
  <path
     d="m 481.58367,164.95144 c 3.0915,8.40502 0.48305,17.77615 -6.18301,23.76594 l -41.83192,38.06414 c 1.06271,8.01859 1.64236,16.2304 1.64236,24.53882 0,8.30841 -0.57965,16.52022 -1.64236,24.53881 l 41.83192,38.06415 c 6.66606,5.98979 9.27451,15.36091 6.18301,23.76593 -4.25082,11.49654 -9.37112,22.51002 -15.26431,33.13707 l -4.54064,7.82537 c -6.37623,10.62705 -13.52533,20.67443 -21.3507,30.14217 -5.69996,6.95588 -15.1677,9.27451 -23.66933,6.56944 L 362.9472,398.26339 c -12.94568,9.95079 -27.24389,18.2592 -42.50819,24.53882 l -12.07619,55.16403 c -1.93218,8.79147 -8.69485,15.74736 -17.58293,17.1965 -13.33211,2.22201 -27.05066,3.38133 -41.05904,3.38133 -14.00837,0 -27.72693,-1.15932 -41.05904,-3.38133 -8.88807,-1.44914 -15.65074,-8.40503 -17.58293,-17.1965 l -12.07619,-55.16403 c -15.2643,-6.27962 -29.56251,-14.58803 -42.50818,-24.53882 l -53.714887,17.1965 c -8.501637,2.70507 -17.969369,0.28983 -23.66933,-6.56944 -7.82537,-9.46773 -14.974474,-19.51512 -21.350701,-30.14218 l -4.540646,-7.82536 c -5.89318,-10.62705 -11.013484,-21.64053 -15.264303,-33.13707 -3.091504,-8.40502 -0.483048,-17.77614 6.183008,-23.76593 l 41.831917,-38.06415 c -1.062704,-8.1152 -1.642361,-16.32701 -1.642361,-24.63542 0,-8.30842 0.579657,-16.52023 1.642361,-24.53882 L 24.137651,188.71738 c -6.666056,-5.98979 -9.274512,-15.36092 -6.183008,-23.76594 4.250819,-11.49653 9.371123,-22.51002 15.264303,-33.13706 l 4.540646,-7.82537 c 6.376227,-10.62704 13.525331,-20.67443 21.350701,-30.142168 5.699961,-6.955885 15.167693,-9.274513 23.66933,-6.569447 L 136.59112,104.37728 C 149.5368,94.426499 163.83499,86.118081 179.0993,79.838464 L 191.17549,24.674435 C 193.10768,15.88297 199.87035,8.9270848 208.75842,7.4779422 222.09053,5.1593138 235.80909,4 249.81746,4 c 14.00838,0 27.72693,1.1593138 41.05904,3.3813328 8.88808,1.4491426 15.65075,8.4050272 17.58293,17.1964922 l 12.07619,55.164029 c 15.2643,6.279618 29.56251,14.588035 42.50819,24.538816 L 416.8553,87.180786 c 8.50163,-2.705066 17.96937,-0.289829 23.66933,6.569446 7.82537,9.467738 14.97447,19.515118 21.3507,30.142168 l 4.54065,7.82537 c 5.89317,10.62705 11.01348,21.64053 15.26429,33.13706 z M 249.81746,328.60795 a 77.28761,77.28761 0 1 0 0,-154.57522 77.28761,77.28761 0 1 0 0,154.57522 z"
     id="path2"
     inkscape:connector-curvature="0"
     style="stroke-width:0.96609509" />
</svg>
